<?xml version="1.0" encoding="UTF-8" standalone="no"?>
<!DOCTYPE svg PUBLIC "-//W3C//DTD SVG 1.1//EN" "http://www.w3.org/Graphics/SVG/1.1/DTD/svg11.dtd">
<svg width="100%" height="100%" viewBox="0 0 100 100" version="1.1" xmlns="http://www.w3.org/2000/svg" xmlns:xlink="http://www.w3.org/1999/xlink" xml:space="preserve" xmlns:serif="http://www.serif.com/" style="fill-rule:evenodd;clip-rule:evenodd;stroke-linejoin:round;stroke-miterlimit:2;">
    <g transform="matrix(1.44546,0,0,1.44546,-40.1864,-19.9226)">
        <path d="M59.026,18.908C59.623,17.584 60.941,16.733 62.393,16.733C63.845,16.733 65.163,17.584 65.76,18.908L73.495,36.043L92.183,38.105C93.626,38.264 94.842,39.254 95.291,40.635C95.74,42.016 95.338,43.532 94.264,44.51L80.357,57.161L84.171,75.571C84.466,76.993 83.9,78.456 82.725,79.309C81.55,80.163 79.984,80.249 78.723,79.529L62.393,70.213L46.063,79.529C44.802,80.249 43.236,80.163 42.061,79.309C40.886,78.456 40.32,76.993 40.615,75.571L44.429,57.161L30.522,44.51C29.448,43.532 29.046,42.016 29.495,40.635C29.944,39.254 31.16,38.264 32.603,38.105L51.291,36.043L59.026,18.908Z"/>
    </g>
</svg>
